# xmcd
#
# Track frame offsets:
#	150
#	20320
#	38214
#	61856
#	81172
#	97003
#	113502
#	129256
#	146276
#	162446
#	184004
#	204345
#	223479
#	244564
#	263974
#
# Disc length: 3854 seconds
#
# Revision: 1
# Processed by: cddbd v1.5.2PL0 Copyright (c) Steve Scherf et al.
# Submitted via: audiograbber 1.83.01
#
DISCID=ca0f0c0f
DTITLE=Tim McGraw - Two Lanes Of Freedom
DYEAR=2013
DGENRE=Country
TTITLE0=Two Lanes Of Freedom
TTITLE1=One Of Those Nights
TTITLE2=Friend Of A Friend
TTITLE3=Southern Girl
TTITLE4=Truck Yeah
TTITLE5=Nashville Without You
TTITLE6=Book Of John
TTITLE7=Annie I Owe You A Dance
TTITLE8=Mexicoma
TTITLE9=Number 37405
TTITLE10=It's Your World
TTITLE11=Tinted Windows
TTITLE12=Highway Don't Care
TTITLE13=Truck Yeah (Live)
TTITLE14=Let Me Love It Out Of You
EXTD=
EXTT0=
EXTT1=
EXTT2=
EXTT3=
EXTT4=
EXTT5=
EXTT6=
EXTT7=
EXTT8=
EXTT9=
EXTT10=
EXTT11=
EXTT12=
EXTT13=
EXTT14=
PLAYORDER=
